G04*
G04 #@! TF.GenerationSoftware,Altium Limited,Altium Designer,18.1.6 (161)*
G04*
G04 Layer_Color=2752767*
%FSTAX24Y24*%
%MOIN*%
G70*
G01*
G75*
%ADD136C,0.0020*%
%ADD137C,0.0027*%
%ADD138C,0.0013*%
D136*
X046325Y037243D02*
Y037403D01*
X046485D01*
Y037243D01*
X046325D01*
X046055D02*
Y037403D01*
X046215D01*
Y037243D01*
X046055D01*
X046325Y034487D02*
Y034647D01*
X046485D01*
Y034487D01*
X046325D01*
X046055D02*
Y034647D01*
X046215D01*
Y034487D01*
X046055D01*
X032309Y027991D02*
X032229Y028151D01*
X032389D01*
X032309Y027991D01*
X031329D02*
X031249Y028151D01*
X031409D01*
X031329Y027991D01*
X030319D02*
X030239Y028151D01*
X030399D01*
X030319Y027991D01*
X007958Y017768D02*
X007879Y017928D01*
X008038D01*
X007958Y017768D01*
Y018778D02*
X007879Y018938D01*
X008038D01*
X007958Y018778D01*
X037581Y030009D02*
X037501Y030169D01*
X037661D01*
X037581Y030009D01*
X034793D02*
X034713Y030169D01*
X034873D01*
X034793Y030009D01*
X036276Y019881D02*
X036196Y020041D01*
X036356D01*
X036276Y019881D01*
X037244D02*
X037164Y020041D01*
X037324D01*
X037244Y019881D01*
X036276Y018912D02*
X036196Y019072D01*
X036356D01*
X036276Y018912D01*
X037244D02*
X037164Y019072D01*
X037324D01*
X037244Y018912D01*
X036276Y017944D02*
X036196Y018104D01*
X036356D01*
X036276Y017944D01*
X037244D02*
X037164Y018104D01*
X037324D01*
X037244Y017944D01*
X036276Y016975D02*
X036196Y017135D01*
X036356D01*
X036276Y016975D01*
X037244D02*
X037164Y017135D01*
X037324D01*
X037244Y016975D01*
X028014Y038739D02*
X028054Y038779D01*
X028094D01*
X028054Y038819D01*
X028094Y038859D01*
X028054D01*
X028014Y038899D01*
X027974Y038859D01*
X027934D01*
X027974Y038819D01*
X027934Y038779D01*
X027974D01*
X028014Y038739D01*
X026514D02*
X026554Y038779D01*
X026594D01*
X026554Y038819D01*
X026594Y038859D01*
X026554D01*
X026514Y038899D01*
X026474Y038859D01*
X026434D01*
X026474Y038819D01*
X026434Y038779D01*
X026474D01*
X026514Y038739D01*
X025014D02*
X025054Y038779D01*
X025094D01*
X025054Y038819D01*
X025094Y038859D01*
X025054D01*
X025014Y038899D01*
X024974Y038859D01*
X024934D01*
X024974Y038819D01*
X024934Y038779D01*
X024974D01*
X025014Y038739D01*
X023514D02*
X023554Y038779D01*
X023594D01*
X023554Y038819D01*
X023594Y038859D01*
X023554D01*
X023514Y038899D01*
X023474Y038859D01*
X023434D01*
X023474Y038819D01*
X023434Y038779D01*
X023474D01*
X023514Y038739D01*
X021386Y0387D02*
X021426Y03874D01*
X021466D01*
X021426Y03878D01*
X021466Y03882D01*
X021426D01*
X021386Y03886D01*
X021346Y03882D01*
X021306D01*
X021346Y03878D01*
X021306Y03874D01*
X021346D01*
X021386Y0387D01*
X019886D02*
X019926Y03874D01*
X019966D01*
X019926Y03878D01*
X019966Y03882D01*
X019926D01*
X019886Y03886D01*
X019846Y03882D01*
X019806D01*
X019846Y03878D01*
X019806Y03874D01*
X019846D01*
X019886Y0387D01*
X018386D02*
X018426Y03874D01*
X018466D01*
X018426Y03878D01*
X018466Y03882D01*
X018426D01*
X018386Y03886D01*
X018346Y03882D01*
X018306D01*
X018346Y03878D01*
X018306Y03874D01*
X018346D01*
X018386Y0387D01*
X016886D02*
X016926Y03874D01*
X016966D01*
X016926Y03878D01*
X016966Y03882D01*
X016926D01*
X016886Y03886D01*
X016846Y03882D01*
X016806D01*
X016846Y03878D01*
X016806Y03874D01*
X016846D01*
X016886Y0387D01*
X028684Y027991D02*
X028724Y028071D01*
X028684Y028151D01*
X028764Y028111D01*
X028844Y028151D01*
X028804Y028071D01*
X028844Y027991D01*
X028764Y028031D01*
X028684Y027991D01*
X027684D02*
X027724Y028071D01*
X027684Y028151D01*
X027764Y028111D01*
X027844Y028151D01*
X027804Y028071D01*
X027844Y027991D01*
X027764Y028031D01*
X027684Y027991D01*
X025684D02*
X025724Y028071D01*
X025684Y028151D01*
X025764Y028111D01*
X025844Y028151D01*
X025804Y028071D01*
X025844Y027991D01*
X025764Y028031D01*
X025684Y027991D01*
X023684D02*
X023724Y028071D01*
X023684Y028151D01*
X023764Y028111D01*
X023844Y028151D01*
X023804Y028071D01*
X023844Y027991D01*
X023764Y028031D01*
X023684Y027991D01*
X019684D02*
X019724Y028071D01*
X019684Y028151D01*
X019764Y028111D01*
X019844Y028151D01*
X019804Y028071D01*
X019844Y027991D01*
X019764Y028031D01*
X019684Y027991D01*
X020684D02*
X020724Y028071D01*
X020684Y028151D01*
X020764Y028111D01*
X020844Y028151D01*
X020804Y028071D01*
X020844Y027991D01*
X020764Y028031D01*
X020684Y027991D01*
X021684D02*
X021724Y028071D01*
X021684Y028151D01*
X021764Y028111D01*
X021844Y028151D01*
X021804Y028071D01*
X021844Y027991D01*
X021764Y028031D01*
X021684Y027991D01*
X022684D02*
X022724Y028071D01*
X022684Y028151D01*
X022764Y028111D01*
X022844Y028151D01*
X022804Y028071D01*
X022844Y027991D01*
X022764Y028031D01*
X022684Y027991D01*
X024684D02*
X024724Y028071D01*
X024684Y028151D01*
X024764Y028111D01*
X024844Y028151D01*
X024804Y028071D01*
X024844Y027991D01*
X024764Y028031D01*
X024684Y027991D01*
X026684D02*
X026724Y028071D01*
X026684Y028151D01*
X026764Y028111D01*
X026844Y028151D01*
X026804Y028071D01*
X026844Y027991D01*
X026764Y028031D01*
X026684Y027991D01*
X042512Y014605D02*
X042432Y014765D01*
X042592D01*
X042512Y014605D01*
X046512D02*
X046432Y014765D01*
X046592D01*
X046512Y014605D01*
X045512D02*
X045432Y014765D01*
X045592D01*
X045512Y014605D01*
X044512D02*
X044432Y014765D01*
X044592D01*
X044512Y014605D01*
X043512D02*
X043432Y014765D01*
X043592D01*
X043512Y014605D01*
X041512D02*
X041432Y014765D01*
X041592D01*
X041512Y014605D01*
X037392Y023463D02*
X037312Y023623D01*
X037472D01*
X037392Y023463D01*
Y022453D02*
X037312Y022613D01*
X037472D01*
X037392Y022453D01*
X04411Y024152D02*
X04403Y024312D01*
X04419D01*
X04411Y024152D01*
X04311D02*
X04303Y024312D01*
X04319D01*
X04311Y024152D01*
X04211D02*
X04203Y024312D01*
X04219D01*
X04211Y024152D01*
X04111D02*
X04103Y024312D01*
X04119D01*
X04111Y024152D01*
X04011D02*
X04003Y024312D01*
X04019D01*
X04011Y024152D01*
X03911D02*
X03903Y024312D01*
X03919D01*
X03911Y024152D01*
X037077Y02553D02*
X036997Y02569D01*
X037157D01*
X037077Y02553D01*
Y02452D02*
X036997Y02468D01*
X037157D01*
X037077Y02452D01*
X003258Y012753D02*
X003298Y012793D01*
X003338D01*
X003298Y012833D01*
X003338Y012873D01*
X003298D01*
X003258Y012913D01*
X003218Y012873D01*
X003178D01*
X003218Y012833D01*
X003178Y012793D01*
X003218D01*
X003258Y012753D01*
Y014253D02*
X003298Y014293D01*
X003338D01*
X003298Y014333D01*
X003338Y014373D01*
X003298D01*
X003258Y014413D01*
X003218Y014373D01*
X003178D01*
X003218Y014333D01*
X003178Y014293D01*
X003218D01*
X003258Y014253D01*
X003255Y016335D02*
X003295Y016375D01*
X003335D01*
X003295Y016415D01*
X003335Y016455D01*
X003295D01*
X003255Y016495D01*
X003215Y016455D01*
X003175D01*
X003215Y016415D01*
X003175Y016375D01*
X003215D01*
X003255Y016335D01*
Y017835D02*
X003295Y017875D01*
X003335D01*
X003295Y017915D01*
X003335Y017955D01*
X003295D01*
X003255Y017995D01*
X003215Y017955D01*
X003175D01*
X003215Y017915D01*
X003175Y017875D01*
X003215D01*
X003255Y017835D01*
X008268Y01143D02*
X008188Y01159D01*
X008348D01*
X008268Y01143D01*
Y01244D02*
X008188Y0126D01*
X008348D01*
X008268Y01244D01*
X009685Y011469D02*
X009605Y011629D01*
X009765D01*
X009685Y011469D01*
Y012479D02*
X009605Y012639D01*
X009765D01*
X009685Y012479D01*
X009606Y013644D02*
X009526Y013804D01*
X009686D01*
X009606Y013644D01*
Y014654D02*
X009526Y014814D01*
X009686D01*
X009606Y014654D01*
Y015634D02*
X009526Y015794D01*
X009686D01*
X009606Y015634D01*
X011078Y01622D02*
Y01618D01*
X011158D01*
Y01622D01*
X011198D01*
Y0163D01*
X011158D01*
Y01634D01*
X011078D01*
Y0163D01*
X011038D01*
Y01622D01*
X011078D01*
Y01122D02*
Y01118D01*
X011158D01*
Y01122D01*
X011198D01*
Y0113D01*
X011158D01*
Y01134D01*
X011078D01*
Y0113D01*
X011038D01*
Y01122D01*
X011078D01*
X012078D02*
Y01118D01*
X012158D01*
Y01122D01*
X012198D01*
Y0113D01*
X012158D01*
Y01134D01*
X012078D01*
Y0113D01*
X012038D01*
Y01122D01*
X012078D01*
X013078D02*
Y01118D01*
X013158D01*
Y01122D01*
X013198D01*
Y0113D01*
X013158D01*
Y01134D01*
X013078D01*
Y0113D01*
X013038D01*
Y01122D01*
X013078D01*
X014078D02*
Y01118D01*
X014158D01*
Y01122D01*
X014198D01*
Y0113D01*
X014158D01*
Y01134D01*
X014078D01*
Y0113D01*
X014038D01*
Y01122D01*
X014078D01*
X015078D02*
Y01118D01*
X015158D01*
Y01122D01*
X015198D01*
Y0113D01*
X015158D01*
Y01134D01*
X015078D01*
Y0113D01*
X015038D01*
Y01122D01*
X015078D01*
X016078D02*
Y01118D01*
X016158D01*
Y01122D01*
X016198D01*
Y0113D01*
X016158D01*
Y01134D01*
X016078D01*
Y0113D01*
X016038D01*
Y01122D01*
X016078D01*
X017078D02*
Y01118D01*
X017158D01*
Y01122D01*
X017198D01*
Y0113D01*
X017158D01*
Y01134D01*
X017078D01*
Y0113D01*
X017038D01*
Y01122D01*
X017078D01*
X018078D02*
Y01118D01*
X018158D01*
Y01122D01*
X018198D01*
Y0113D01*
X018158D01*
Y01134D01*
X018078D01*
Y0113D01*
X018038D01*
Y01122D01*
X018078D01*
Y01622D02*
Y01618D01*
X018158D01*
Y01622D01*
X018198D01*
Y0163D01*
X018158D01*
Y01634D01*
X018078D01*
Y0163D01*
X018038D01*
Y01622D01*
X018078D01*
X017078D02*
Y01618D01*
X017158D01*
Y01622D01*
X017198D01*
Y0163D01*
X017158D01*
Y01634D01*
X017078D01*
Y0163D01*
X017038D01*
Y01622D01*
X017078D01*
X016078D02*
Y01618D01*
X016158D01*
Y01622D01*
X016198D01*
Y0163D01*
X016158D01*
Y01634D01*
X016078D01*
Y0163D01*
X016038D01*
Y01622D01*
X016078D01*
X015078D02*
Y01618D01*
X015158D01*
Y01622D01*
X015198D01*
Y0163D01*
X015158D01*
Y01634D01*
X015078D01*
Y0163D01*
X015038D01*
Y01622D01*
X015078D01*
X014078D02*
Y01618D01*
X014158D01*
Y01622D01*
X014198D01*
Y0163D01*
X014158D01*
Y01634D01*
X014078D01*
Y0163D01*
X014038D01*
Y01622D01*
X014078D01*
X013078D02*
Y01618D01*
X013158D01*
Y01622D01*
X013198D01*
Y0163D01*
X013158D01*
Y01634D01*
X013078D01*
Y0163D01*
X013038D01*
Y01622D01*
X013078D01*
X012078D02*
Y01618D01*
X012158D01*
Y01622D01*
X012198D01*
Y0163D01*
X012158D01*
Y01634D01*
X012078D01*
Y0163D01*
X012038D01*
Y01622D01*
X012078D01*
X02162Y00365D02*
X02166Y00369D01*
X0217D01*
X02166Y00373D01*
X0217Y00377D01*
X02166D01*
X02162Y00381D01*
X02158Y00377D01*
X02154D01*
X02158Y00373D01*
X02154Y00369D01*
X02158D01*
X02162Y00365D01*
X02012D02*
X02016Y00369D01*
X0202D01*
X02016Y00373D01*
X0202Y00377D01*
X02016D01*
X02012Y00381D01*
X02008Y00377D01*
X02004D01*
X02008Y00373D01*
X02004Y00369D01*
X02008D01*
X02012Y00365D01*
X01862D02*
X01866Y00369D01*
X0187D01*
X01866Y00373D01*
X0187Y00377D01*
X01866D01*
X01862Y00381D01*
X01858Y00377D01*
X01854D01*
X01858Y00373D01*
X01854Y00369D01*
X01858D01*
X01862Y00365D01*
X01712D02*
X01716Y00369D01*
X0172D01*
X01716Y00373D01*
X0172Y00377D01*
X01716D01*
X01712Y00381D01*
X01708Y00377D01*
X01704D01*
X01708Y00373D01*
X01704Y00369D01*
X01708D01*
X01712Y00365D01*
X014878D02*
X014918Y00369D01*
X014958D01*
X014918Y00373D01*
X014958Y00377D01*
X014918D01*
X014878Y00381D01*
X014838Y00377D01*
X014798D01*
X014838Y00373D01*
X014798Y00369D01*
X014838D01*
X014878Y00365D01*
X013378D02*
X013418Y00369D01*
X013458D01*
X013418Y00373D01*
X013458Y00377D01*
X013418D01*
X013378Y00381D01*
X013338Y00377D01*
X013298D01*
X013338Y00373D01*
X013298Y00369D01*
X013338D01*
X013378Y00365D01*
X011878D02*
X011918Y00369D01*
X011958D01*
X011918Y00373D01*
X011958Y00377D01*
X011918D01*
X011878Y00381D01*
X011838Y00377D01*
X011798D01*
X011838Y00373D01*
X011798Y00369D01*
X011838D01*
X011878Y00365D01*
X010378D02*
X010418Y00369D01*
X010458D01*
X010418Y00373D01*
X010458Y00377D01*
X010418D01*
X010378Y00381D01*
X010338Y00377D01*
X010298D01*
X010338Y00373D01*
X010298Y00369D01*
X010338D01*
X010378Y00365D01*
X01581Y010003D02*
X01585D01*
X01589Y010043D01*
X01593Y010003D01*
X01597D01*
Y010043D01*
X01593Y010083D01*
X01597Y010123D01*
Y010163D01*
X01593D01*
X01589Y010123D01*
X01585Y010163D01*
X01581D01*
Y010123D01*
X01585Y010083D01*
X01581Y010043D01*
Y010003D01*
X01681D02*
X01685D01*
X01689Y010043D01*
X01693Y010003D01*
X01697D01*
Y010043D01*
X01693Y010083D01*
X01697Y010123D01*
Y010163D01*
X01693D01*
X01689Y010123D01*
X01685Y010163D01*
X01681D01*
Y010123D01*
X01685Y010083D01*
X01681Y010043D01*
Y010003D01*
X01781D02*
X01785D01*
X01789Y010043D01*
X01793Y010003D01*
X01797D01*
Y010043D01*
X01793Y010083D01*
X01797Y010123D01*
Y010163D01*
X01793D01*
X01789Y010123D01*
X01785Y010163D01*
X01781D01*
Y010123D01*
X01785Y010083D01*
X01781Y010043D01*
Y010003D01*
Y007003D02*
X01785D01*
X01789Y007043D01*
X01793Y007003D01*
X01797D01*
Y007043D01*
X01793Y007083D01*
X01797Y007123D01*
Y007163D01*
X01793D01*
X01789Y007123D01*
X01785Y007163D01*
X01781D01*
Y007123D01*
X01785Y007083D01*
X01781Y007043D01*
Y007003D01*
X01681D02*
X01685D01*
X01689Y007043D01*
X01693Y007003D01*
X01697D01*
Y007043D01*
X01693Y007083D01*
X01697Y007123D01*
Y007163D01*
X01693D01*
X01689Y007123D01*
X01685Y007163D01*
X01681D01*
Y007123D01*
X01685Y007083D01*
X01681Y007043D01*
Y007003D01*
X01581D02*
X01585D01*
X01589Y007043D01*
X01593Y007003D01*
X01597D01*
Y007043D01*
X01593Y007083D01*
X01597Y007123D01*
Y007163D01*
X01593D01*
X01589Y007123D01*
X01585Y007163D01*
X01581D01*
Y007123D01*
X01585Y007083D01*
X01581Y007043D01*
Y007003D01*
X012992Y009981D02*
X012912Y010141D01*
X013072D01*
X012992Y009981D01*
Y008971D02*
X012912Y009131D01*
X013072D01*
X012992Y008971D01*
Y007991D02*
X012912Y008151D01*
X013072D01*
X012992Y007991D01*
X014331Y009981D02*
X014251Y010141D01*
X014411D01*
X014331Y009981D01*
Y008971D02*
X014251Y009131D01*
X014411D01*
X014331Y008971D01*
Y007991D02*
X014251Y008151D01*
X014411D01*
X014331Y007991D01*
X010354Y010024D02*
X010274Y010184D01*
X010434D01*
X010354Y010024D01*
Y009014D02*
X010274Y009174D01*
X010434D01*
X010354Y009014D01*
Y008034D02*
X010274Y008194D01*
X010434D01*
X010354Y008034D01*
X011693Y009975D02*
X011613Y010135D01*
X011773D01*
X011693Y009975D01*
Y008965D02*
X011613Y009125D01*
X011773D01*
X011693Y008965D01*
Y007985D02*
X011613Y008145D01*
X011773D01*
X011693Y007985D01*
X026188Y011259D02*
Y011219D01*
X026268D01*
Y011259D01*
X026308D01*
Y011339D01*
X026268D01*
Y011379D01*
X026188D01*
Y011339D01*
X026148D01*
Y011259D01*
X026188D01*
Y016259D02*
Y016219D01*
X026268D01*
Y016259D01*
X026308D01*
Y016339D01*
X026268D01*
Y016379D01*
X026188D01*
Y016339D01*
X026148D01*
Y016259D01*
X026188D01*
X025188D02*
Y016219D01*
X025268D01*
Y016259D01*
X025308D01*
Y016339D01*
X025268D01*
Y016379D01*
X025188D01*
Y016339D01*
X025148D01*
Y016259D01*
X025188D01*
X024188D02*
Y016219D01*
X024268D01*
Y016259D01*
X024308D01*
Y016339D01*
X024268D01*
Y016379D01*
X024188D01*
Y016339D01*
X024148D01*
Y016259D01*
X024188D01*
X023188D02*
Y016219D01*
X023268D01*
Y016259D01*
X023308D01*
Y016339D01*
X023268D01*
Y016379D01*
X023188D01*
Y016339D01*
X023148D01*
Y016259D01*
X023188D01*
X022188D02*
Y016219D01*
X022268D01*
Y016259D01*
X022308D01*
Y016339D01*
X022268D01*
Y016379D01*
X022188D01*
Y016339D01*
X022148D01*
Y016259D01*
X022188D01*
X021188D02*
Y016219D01*
X021268D01*
Y016259D01*
X021308D01*
Y016339D01*
X021268D01*
Y016379D01*
X021188D01*
Y016339D01*
X021148D01*
Y016259D01*
X021188D01*
X020188D02*
Y016219D01*
X020268D01*
Y016259D01*
X020308D01*
Y016339D01*
X020268D01*
Y016379D01*
X020188D01*
Y016339D01*
X020148D01*
Y016259D01*
X020188D01*
X019188D02*
Y016219D01*
X019268D01*
Y016259D01*
X019308D01*
Y016339D01*
X019268D01*
Y016379D01*
X019188D01*
Y016339D01*
X019148D01*
Y016259D01*
X019188D01*
Y011259D02*
Y011219D01*
X019268D01*
Y011259D01*
X019308D01*
Y011339D01*
X019268D01*
Y011379D01*
X019188D01*
Y011339D01*
X019148D01*
Y011259D01*
X019188D01*
X020188D02*
Y011219D01*
X020268D01*
Y011259D01*
X020308D01*
Y011339D01*
X020268D01*
Y011379D01*
X020188D01*
Y011339D01*
X020148D01*
Y011259D01*
X020188D01*
X021188D02*
Y011219D01*
X021268D01*
Y011259D01*
X021308D01*
Y011339D01*
X021268D01*
Y011379D01*
X021188D01*
Y011339D01*
X021148D01*
Y011259D01*
X021188D01*
X022188D02*
Y011219D01*
X022268D01*
Y011259D01*
X022308D01*
Y011339D01*
X022268D01*
Y011379D01*
X022188D01*
Y011339D01*
X022148D01*
Y011259D01*
X022188D01*
X023188D02*
Y011219D01*
X023268D01*
Y011259D01*
X023308D01*
Y011339D01*
X023268D01*
Y011379D01*
X023188D01*
Y011339D01*
X023148D01*
Y011259D01*
X023188D01*
X024188D02*
Y011219D01*
X024268D01*
Y011259D01*
X024308D01*
Y011339D01*
X024268D01*
Y011379D01*
X024188D01*
Y011339D01*
X024148D01*
Y011259D01*
X024188D01*
X025188D02*
Y011219D01*
X025268D01*
Y011259D01*
X025308D01*
Y011339D01*
X025268D01*
Y011379D01*
X025188D01*
Y011339D01*
X025148D01*
Y011259D01*
X025188D01*
X01955Y010003D02*
X01959D01*
X01963Y010043D01*
X01967Y010003D01*
X01971D01*
Y010043D01*
X01967Y010083D01*
X01971Y010123D01*
Y010163D01*
X01967D01*
X01963Y010123D01*
X01959Y010163D01*
X01955D01*
Y010123D01*
X01959Y010083D01*
X01955Y010043D01*
Y010003D01*
X02055D02*
X02059D01*
X02063Y010043D01*
X02067Y010003D01*
X02071D01*
Y010043D01*
X02067Y010083D01*
X02071Y010123D01*
Y010163D01*
X02067D01*
X02063Y010123D01*
X02059Y010163D01*
X02055D01*
Y010123D01*
X02059Y010083D01*
X02055Y010043D01*
Y010003D01*
X02155D02*
X02159D01*
X02163Y010043D01*
X02167Y010003D01*
X02171D01*
Y010043D01*
X02167Y010083D01*
X02171Y010123D01*
Y010163D01*
X02167D01*
X02163Y010123D01*
X02159Y010163D01*
X02155D01*
Y010123D01*
X02159Y010083D01*
X02155Y010043D01*
Y010003D01*
Y007003D02*
X02159D01*
X02163Y007043D01*
X02167Y007003D01*
X02171D01*
Y007043D01*
X02167Y007083D01*
X02171Y007123D01*
Y007163D01*
X02167D01*
X02163Y007123D01*
X02159Y007163D01*
X02155D01*
Y007123D01*
X02159Y007083D01*
X02155Y007043D01*
Y007003D01*
X02055D02*
X02059D01*
X02063Y007043D01*
X02067Y007003D01*
X02071D01*
Y007043D01*
X02067Y007083D01*
X02071Y007123D01*
Y007163D01*
X02067D01*
X02063Y007123D01*
X02059Y007163D01*
X02055D01*
Y007123D01*
X02059Y007083D01*
X02055Y007043D01*
Y007003D01*
X01955D02*
X01959D01*
X01963Y007043D01*
X01967Y007003D01*
X01971D01*
Y007043D01*
X01967Y007083D01*
X01971Y007123D01*
Y007163D01*
X01967D01*
X01963Y007123D01*
X01959Y007163D01*
X01955D01*
Y007123D01*
X01959Y007083D01*
X01955Y007043D01*
Y007003D01*
X024685Y010014D02*
X024605Y010174D01*
X024765D01*
X024685Y010014D01*
Y009004D02*
X024605Y009164D01*
X024765D01*
X024685Y009004D01*
Y008024D02*
X024605Y008184D01*
X024765D01*
X024685Y008024D01*
X023307Y010024D02*
X023227Y010184D01*
X023387D01*
X023307Y010024D01*
Y009014D02*
X023227Y009174D01*
X023387D01*
X023307Y009014D01*
Y008034D02*
X023227Y008194D01*
X023387D01*
X023307Y008034D01*
X027283Y010038D02*
X027203Y010198D01*
X027363D01*
X027283Y010038D01*
Y009028D02*
X027203Y009188D01*
X027363D01*
X027283Y009028D01*
Y008048D02*
X027203Y008208D01*
X027363D01*
X027283Y008048D01*
X025984Y010024D02*
X025904Y010184D01*
X026064D01*
X025984Y010024D01*
Y009014D02*
X025904Y009174D01*
X026064D01*
X025984Y009014D01*
Y008034D02*
X025904Y008194D01*
X026064D01*
X025984Y008034D01*
X032309Y029251D02*
X032229Y029411D01*
X032389D01*
X032309Y029251D01*
X031299D02*
X031219Y029411D01*
X031379D01*
X031299Y029251D01*
X030319D02*
X030239Y029411D01*
X030399D01*
X030319Y029251D01*
X001982Y022402D02*
X002062Y022482D01*
X002142Y022402D01*
X002062Y022322D01*
X001982Y022402D01*
Y020433D02*
X002062Y020513D01*
X002142Y020433D01*
X002062Y020353D01*
X001982Y020433D01*
Y02437D02*
X002062Y02445D01*
X002142Y02437D01*
X002062Y02429D01*
X001982Y02437D01*
X027498Y021534D02*
X027418Y021694D01*
X027578D01*
X027498Y021534D01*
X028508D02*
X028428Y021694D01*
X028588D01*
X028508Y021534D01*
X029488D02*
X029408Y021694D01*
X029568D01*
X029488Y021534D01*
X000683Y026455D02*
X000603Y026615D01*
X000763D01*
X000683Y026455D01*
X001693D02*
X001613Y026615D01*
X001773D01*
X001693Y026455D01*
X00553Y038326D02*
X00545Y038486D01*
X00561D01*
X00553Y038326D01*
X00452D02*
X00444Y038486D01*
X0046D01*
X00452Y038326D01*
X00354D02*
X00346Y038486D01*
X00362D01*
X00354Y038326D01*
X00253D02*
X00245Y038486D01*
X00261D01*
X00253Y038326D01*
X004756Y027794D02*
X004676Y027954D01*
X004836D01*
X004756Y027794D01*
X000756D02*
X000676Y027954D01*
X000836D01*
X000756Y027794D01*
X001756D02*
X001676Y027954D01*
X001836D01*
X001756Y027794D01*
X002756D02*
X002676Y027954D01*
X002836D01*
X002756Y027794D01*
X003756D02*
X003676Y027954D01*
X003836D01*
X003756Y027794D01*
X005968Y027833D02*
X005889Y027993D01*
X006048D01*
X005968Y027833D01*
X006978D02*
X006898Y027993D01*
X007059D01*
X006978Y027833D01*
X007958D02*
X007879Y027993D01*
X008038D01*
X007958Y027833D01*
X006834Y038286D02*
X006754Y038446D01*
X006914D01*
X006834Y038286D01*
X007844D02*
X007764Y038446D01*
X007924D01*
X007844Y038286D01*
X002774Y026455D02*
X002694Y026615D01*
X002854D01*
X002774Y026455D01*
X003784D02*
X003704Y026615D01*
X003864D01*
X003784Y026455D01*
X004764D02*
X004684Y026615D01*
X004844D01*
X004764Y026455D01*
X005774D02*
X005694Y026615D01*
X005854D01*
X005774Y026455D01*
X046154Y010983D02*
X046074Y011143D01*
X046234D01*
X046154Y010983D01*
X045165D02*
X045085Y011143D01*
X045245D01*
X045165Y010983D01*
X044177D02*
X044097Y011143D01*
X044257D01*
X044177Y010983D01*
X043189D02*
X043109Y011143D01*
X043269D01*
X043189Y010983D01*
X042201D02*
X042121Y011143D01*
X042281D01*
X042201Y010983D01*
X041213D02*
X041133Y011143D01*
X041293D01*
X041213Y010983D01*
X039724Y012873D02*
X039644Y013033D01*
X039804D01*
X039724Y012873D01*
Y011863D02*
X039644Y012023D01*
X039804D01*
X039724Y011863D01*
Y010883D02*
X039644Y011043D01*
X039804D01*
X039724Y010883D01*
X041654Y002637D02*
X041574Y002797D01*
X041734D01*
X041654Y002637D01*
X040644D02*
X040564Y002797D01*
X040724D01*
X040644Y002637D01*
X039664D02*
X039584Y002797D01*
X039744D01*
X039664Y002637D01*
X023542Y005826D02*
Y005986D01*
X023702D01*
Y005826D01*
X023542D01*
X023582Y005866D02*
Y005946D01*
X023662D01*
Y005866D01*
X023582D01*
X035353Y035353D02*
Y035513D01*
X035513D01*
Y035353D01*
X035353D01*
X035393Y035393D02*
Y035473D01*
X035473D01*
Y035393D01*
X035393D01*
X011731Y035353D02*
Y035513D01*
X011891D01*
Y035353D01*
X011731D01*
X011771Y035393D02*
Y035473D01*
X011851D01*
Y035393D01*
X011771D01*
D137*
X045287Y036929D02*
G03*
X045287Y036929I-00008J0D01*
G01*
Y034961D02*
G03*
X045287Y034961I-00008J0D01*
G01*
X000907Y03627D02*
G03*
X000907Y03627I-00008J0D01*
G01*
X000651Y033907D02*
G03*
X000651Y033907I-00008J0D01*
G01*
X033501Y023238D02*
G03*
X033501Y023238I-00008J0D01*
G01*
X033889Y023967D02*
G03*
X033889Y023967I-00008J0D01*
G01*
X006064Y02498D02*
G03*
X006064Y02498I-00008J0D01*
G01*
X042238Y035218D02*
G03*
X042238Y035218I-00008J0D01*
G01*
X043018Y034714D02*
G03*
X043018Y034714I-00008J0D01*
G01*
X043261Y034834D02*
G03*
X043261Y034834I-00008J0D01*
G01*
X006039Y02581D02*
G03*
X006039Y02581I-00008J0D01*
G01*
X005631Y012638D02*
G03*
X005631Y012638I-00008J0D01*
G01*
X004676Y016693D02*
G03*
X004676Y016693I-00008J0D01*
G01*
X00509Y019745D02*
G03*
X00509Y019745I-00008J0D01*
G01*
X013198Y027754D02*
G03*
X013198Y027754I-00008J0D01*
G01*
X013338Y026378D02*
G03*
X013338Y026378I-00008J0D01*
G01*
X008377Y021929D02*
G03*
X008377Y021929I-00008J0D01*
G01*
X012309Y027741D02*
G03*
X012309Y027741I-00008J0D01*
G01*
X027383Y023514D02*
G03*
X027383Y023514I-00008J0D01*
G01*
X029204Y02373D02*
G03*
X029204Y02373I-00008J0D01*
G01*
X030356Y025994D02*
G03*
X030356Y025994I-00008J0D01*
G01*
X044332Y034291D02*
G03*
X044332Y034291I-00008J0D01*
G01*
X042974Y034104D02*
G03*
X042974Y034104I-00008J0D01*
G01*
X042137Y034557D02*
G03*
X042137Y034557I-00008J0D01*
G01*
X045289Y036458D02*
G03*
X045289Y036458I-00008J0D01*
G01*
X043761Y036358D02*
G03*
X043761Y036358I-00008J0D01*
G01*
X043771Y038386D02*
G03*
X043771Y038386I-00008J0D01*
G01*
X042167D02*
G03*
X042167Y038386I-00008J0D01*
G01*
X032389Y024783D02*
G03*
X032389Y024783I-00008J0D01*
G01*
X031734Y025404D02*
G03*
X031734Y025404I-00008J0D01*
G01*
X032108Y025561D02*
G03*
X032108Y025561I-00008J0D01*
G01*
X036509Y027856D02*
G03*
X036509Y027856I-00008J0D01*
G01*
X036005Y027736D02*
G03*
X036005Y027736I-00008J0D01*
G01*
X034263Y024154D02*
G03*
X034263Y024154I-00008J0D01*
G01*
X035188Y024183D02*
G03*
X035188Y024183I-00008J0D01*
G01*
X03193Y022333D02*
G03*
X03193Y022333I-00008J0D01*
G01*
X026802Y022362D02*
G03*
X026802Y022362I-00008J0D01*
G01*
X03322Y022795D02*
G03*
X03322Y022795I-00008J0D01*
G01*
X0432Y020709D02*
G03*
X0432Y020709I-00008J0D01*
G01*
X039863Y020374D02*
G03*
X039863Y020374I-00008J0D01*
G01*
X036458Y021181D02*
G03*
X036458Y021181I-00008J0D01*
G01*
X040956Y019646D02*
G03*
X040956Y019646I-00008J0D01*
G01*
X001596Y028563D02*
G03*
X001596Y028563I-00008J0D01*
G01*
X008791Y030778D02*
G03*
X008791Y030778I-00008J0D01*
G01*
X008775Y031476D02*
G03*
X008775Y031476I-00008J0D01*
G01*
X012117Y014439D02*
G03*
X012117Y014439I-00008J0D01*
G01*
X018033Y015187D02*
G03*
X018033Y015187I-00008J0D01*
G01*
X01825Y014193D02*
G03*
X01825Y014193I-00008J0D01*
G01*
X013111Y02812D02*
G03*
X013111Y02812I-00008J0D01*
G01*
X031704Y024331D02*
G03*
X031704Y024331I-00008J0D01*
G01*
X032295Y023996D02*
G03*
X032295Y023996I-00008J0D01*
G01*
X031637Y023583D02*
G03*
X031637Y023583I-00008J0D01*
G01*
X02827Y023712D02*
G03*
X02827Y023712I-00008J0D01*
G01*
X029736Y027049D02*
G03*
X029736Y027049I-00008J0D01*
G01*
X030364Y025049D02*
G03*
X030364Y025049I-00008J0D01*
G01*
X030976Y021614D02*
G03*
X030976Y021614I-00008J0D01*
G01*
X023407Y02188D02*
G03*
X023407Y02188I-00008J0D01*
G01*
X026576Y022028D02*
G03*
X026576Y022028I-00008J0D01*
G01*
X022836Y033041D02*
G03*
X022836Y033041I-00008J0D01*
G01*
X013417Y029075D02*
G03*
X013417Y029075I-00008J0D01*
G01*
X026458Y025034D02*
G03*
X026458Y025034I-00008J0D01*
G01*
X03055Y025783D02*
G03*
X03055Y025783I-00008J0D01*
G01*
X027442Y025817D02*
G03*
X027442Y025817I-00008J0D01*
G01*
X038604Y012293D02*
G03*
X038604Y012293I-00008J0D01*
G01*
X03881Y013199D02*
G03*
X03881Y013199I-00008J0D01*
G01*
X037078Y015915D02*
G03*
X037078Y015915I-00008J0D01*
G01*
X038623Y017913D02*
G03*
X038623Y017913I-00008J0D01*
G01*
X034913Y020069D02*
G03*
X034913Y020069I-00008J0D01*
G01*
X034923Y022536D02*
G03*
X034923Y022536I-00008J0D01*
G01*
X034655Y022185D02*
G03*
X034655Y022185I-00008J0D01*
G01*
X034991Y021024D02*
G03*
X034991Y021024I-00008J0D01*
G01*
X033576Y022127D02*
G03*
X033576Y022127I-00008J0D01*
G01*
X035149Y022726D02*
G03*
X035149Y022726I-00008J0D01*
G01*
X036118Y023691D02*
G03*
X036118Y023691I-00008J0D01*
G01*
X037789Y020818D02*
G03*
X037789Y020818I-00008J0D01*
G01*
X040867Y004764D02*
G03*
X040867Y004764I-00008J0D01*
G01*
X041143Y003868D02*
G03*
X041143Y003868I-00008J0D01*
G01*
X01797Y02611D02*
G03*
X01797Y02611I-00008J0D01*
G01*
X009913Y01875D02*
G03*
X009913Y01875I-00008J0D01*
G01*
X046665Y033366D02*
G03*
X046665Y033366I-00008J0D01*
G01*
X0401Y034065D02*
G03*
X0401Y034065I-00008J0D01*
G01*
X037511Y034262D02*
G03*
X037511Y034262I-00008J0D01*
G01*
X040218Y035522D02*
G03*
X040218Y035522I-00008J0D01*
G01*
X042029Y029656D02*
G03*
X042029Y029656I-00008J0D01*
G01*
X041556Y028661D02*
G03*
X041556Y028661I-00008J0D01*
G01*
X043919Y027894D02*
G03*
X043919Y027894I-00008J0D01*
G01*
X041999Y027874D02*
G03*
X041999Y027874I-00008J0D01*
G01*
X039155Y034695D02*
G03*
X039155Y034695I-00008J0D01*
G01*
X044895Y035947D02*
G03*
X044895Y035947I-00008J0D01*
G01*
X044115Y035699D02*
G03*
X044115Y035699I-00008J0D01*
G01*
X044863Y035689D02*
G03*
X044863Y035689I-00008J0D01*
G01*
X04397Y035927D02*
G03*
X04397Y035927I-00008J0D01*
G01*
X045228Y03253D02*
G03*
X045228Y03253I-00008J0D01*
G01*
X044106Y035413D02*
G03*
X044106Y035413I-00008J0D01*
G01*
X042836Y03252D02*
G03*
X042836Y03252I-00008J0D01*
G01*
X041281Y03251D02*
G03*
X041281Y03251I-00008J0D01*
G01*
X04386Y031368D02*
G03*
X04386Y031368I-00008J0D01*
G01*
X043692Y031752D02*
G03*
X043692Y031752I-00008J0D01*
G01*
X040928Y035257D02*
G03*
X040928Y035257I-00008J0D01*
G01*
X04272Y035415D02*
G03*
X04272Y035415I-00008J0D01*
G01*
X040848Y021929D02*
G03*
X040848Y021929I-00008J0D01*
G01*
X017806Y02813D02*
G03*
X017806Y02813I-00008J0D01*
G01*
X040503Y034872D02*
G03*
X040503Y034872I-00008J0D01*
G01*
X037984Y035807D02*
G03*
X037984Y035807I-00008J0D01*
G01*
X039115Y036191D02*
G03*
X039115Y036191I-00008J0D01*
G01*
X008446Y027188D02*
G03*
X008446Y027188I-00008J0D01*
G01*
X023013Y033278D02*
G03*
X023013Y033278I-00008J0D01*
G01*
X033308Y028858D02*
G03*
X033308Y028858I-00008J0D01*
G01*
X030481Y019774D02*
G03*
X030481Y019774I-00008J0D01*
G01*
X026724Y019282D02*
G03*
X026724Y019282I-00008J0D01*
G01*
X030771Y027049D02*
G03*
X030771Y027049I-00008J0D01*
G01*
X040503Y025683D02*
G03*
X040503Y025683I-00008J0D01*
G01*
X041517Y018297D02*
G03*
X041517Y018297I-00008J0D01*
G01*
X038889Y025837D02*
G03*
X038889Y025837I-00008J0D01*
G01*
X038387Y026683D02*
G03*
X038387Y026683I-00008J0D01*
G01*
X038702Y025197D02*
G03*
X038702Y025197I-00008J0D01*
G01*
X03386Y029843D02*
G03*
X03386Y029843I-00008J0D01*
G01*
X03819Y025433D02*
G03*
X03819Y025433I-00008J0D01*
G01*
X040671Y018858D02*
G03*
X040671Y018858I-00008J0D01*
G01*
X040322Y017858D02*
G03*
X040322Y017858I-00008J0D01*
G01*
X040257Y016841D02*
G03*
X040257Y016841I-00008J0D01*
G01*
X044509Y020482D02*
G03*
X044509Y020482I-00008J0D01*
G01*
X044736Y019774D02*
G03*
X044736Y019774I-00008J0D01*
G01*
X044962Y019006D02*
G03*
X044962Y019006I-00008J0D01*
G01*
X045749Y017441D02*
G03*
X045749Y017441I-00008J0D01*
G01*
X045277Y01812D02*
G03*
X045277Y01812I-00008J0D01*
G01*
X031556Y0169D02*
G03*
X031556Y0169I-00008J0D01*
G01*
X030661Y012579D02*
G03*
X030661Y012579I-00008J0D01*
G01*
X031012Y015384D02*
G03*
X031012Y015384I-00008J0D01*
G01*
X031468Y01313D02*
G03*
X031468Y01313I-00008J0D01*
G01*
X031586Y015354D02*
G03*
X031586Y015354I-00008J0D01*
G01*
X021478Y014646D02*
G03*
X021478Y014646I-00008J0D01*
G01*
X025188Y013661D02*
G03*
X025188Y013661I-00008J0D01*
G01*
X02198Y014606D02*
G03*
X02198Y014606I-00008J0D01*
G01*
X023605Y011733D02*
G03*
X023605Y011733I-00008J0D01*
G01*
X024289Y012126D02*
G03*
X024289Y012126I-00008J0D01*
G01*
X031487Y019656D02*
G03*
X031487Y019656I-00008J0D01*
G01*
X031989Y019695D02*
G03*
X031989Y019695I-00008J0D01*
G01*
X032862Y019685D02*
G03*
X032862Y019685I-00008J0D01*
G01*
X011054Y019291D02*
G03*
X011054Y019291I-00008J0D01*
G01*
X001537Y010591D02*
G03*
X001537Y010591I-00008J0D01*
G01*
X036458Y026752D02*
G03*
X036458Y026752I-00008J0D01*
G01*
X032797Y027205D02*
G03*
X032797Y027205I-00008J0D01*
G01*
X034339Y023213D02*
G03*
X034339Y023213I-00008J0D01*
G01*
X03283Y022333D02*
G03*
X03283Y022333I-00008J0D01*
G01*
X033498Y026801D02*
G03*
X033498Y026801I-00008J0D01*
G01*
X033584Y025285D02*
G03*
X033584Y025285I-00008J0D01*
G01*
X033751Y017608D02*
G03*
X033751Y017608I-00008J0D01*
G01*
X033121Y016191D02*
G03*
X033121Y016191I-00008J0D01*
G01*
X034216Y016004D02*
G03*
X034216Y016004I-00008J0D01*
G01*
X038023Y020955D02*
G03*
X038023Y020955I-00008J0D01*
G01*
X038052Y025683D02*
G03*
X038052Y025683I-00008J0D01*
G01*
X039293Y025965D02*
G03*
X039293Y025965I-00008J0D01*
G01*
X04009Y02627D02*
G03*
X04009Y02627I-00008J0D01*
G01*
X037344Y026535D02*
G03*
X037344Y026535I-00008J0D01*
G01*
X034432Y024883D02*
G03*
X034432Y024883I-00008J0D01*
G01*
X033945Y026273D02*
G03*
X033945Y026273I-00008J0D01*
G01*
X032862Y026457D02*
G03*
X032862Y026457I-00008J0D01*
G01*
X035306Y025089D02*
G03*
X035306Y025089I-00008J0D01*
G01*
X034568Y028435D02*
G03*
X034568Y028435I-00008J0D01*
G01*
X032491Y032904D02*
G03*
X032491Y032904I-00008J0D01*
G01*
X0332Y033031D02*
G03*
X0332Y033031I-00008J0D01*
G01*
X032865Y032047D02*
G03*
X032865Y032047I-00008J0D01*
G01*
X032434Y030375D02*
G03*
X032434Y030375I-00008J0D01*
G01*
X03318Y030177D02*
G03*
X03318Y030177I-00008J0D01*
G01*
X031684Y027018D02*
G03*
X031684Y027018I-00008J0D01*
G01*
X038043Y027766D02*
G03*
X038043Y027766I-00008J0D01*
G01*
X038564Y03002D02*
G03*
X038564Y03002I-00008J0D01*
G01*
X037934Y033031D02*
G03*
X037934Y033031I-00008J0D01*
G01*
X029017Y026024D02*
G03*
X029017Y026024I-00008J0D01*
G01*
X028172Y025011D02*
G03*
X028172Y025011I-00008J0D01*
G01*
X03133Y022441D02*
G03*
X03133Y022441I-00008J0D01*
G01*
X037718Y007083D02*
G03*
X037718Y007083I-00008J0D01*
G01*
X026379Y021614D02*
G03*
X026379Y021614I-00008J0D01*
G01*
X007009Y013543D02*
G03*
X007009Y013543I-00008J0D01*
G01*
X005356Y035939D02*
G03*
X005356Y035939I-00008J0D01*
G01*
X002442Y035945D02*
G03*
X002442Y035945I-00008J0D01*
G01*
X001576Y036043D02*
G03*
X001576Y036043I-00008J0D01*
G01*
X003308Y036024D02*
G03*
X003308Y036024I-00008J0D01*
G01*
X004096Y036043D02*
G03*
X004096Y036043I-00008J0D01*
G01*
X007482Y026654D02*
G03*
X007482Y026654I-00008J0D01*
G01*
X028112D02*
G03*
X028112Y026654I-00008J0D01*
G01*
X040867Y009882D02*
G03*
X040867Y009882I-00008J0D01*
G01*
X046064Y027008D02*
G03*
X046064Y027008I-00008J0D01*
G01*
X029214Y022868D02*
G03*
X029214Y022868I-00008J0D01*
G01*
X007442Y022835D02*
G03*
X007442Y022835I-00008J0D01*
G01*
Y000512D02*
G03*
X007442Y000512I-00008J0D01*
G01*
X016419Y014734D02*
G03*
X016419Y014734I-00008J0D01*
G01*
X018899Y013071D02*
G03*
X018899Y013071I-00008J0D01*
G01*
D138*
X000867Y03627D02*
G03*
X000867Y03627I-00004J0D01*
G01*
X000611Y033907D02*
G03*
X000611Y033907I-00004J0D01*
G01*
X033461Y023238D02*
G03*
X033461Y023238I-00004J0D01*
G01*
X033849Y023967D02*
G03*
X033849Y023967I-00004J0D01*
G01*
X006024Y02498D02*
G03*
X006024Y02498I-00004J0D01*
G01*
X042198Y035218D02*
G03*
X042198Y035218I-00004J0D01*
G01*
X042978Y034714D02*
G03*
X042978Y034714I-00004J0D01*
G01*
X043221Y034834D02*
G03*
X043221Y034834I-00004J0D01*
G01*
X005999Y02581D02*
G03*
X005999Y02581I-00004J0D01*
G01*
X005591Y012638D02*
G03*
X005591Y012638I-00004J0D01*
G01*
X004636Y016693D02*
G03*
X004636Y016693I-00004J0D01*
G01*
X00505Y019745D02*
G03*
X00505Y019745I-00004J0D01*
G01*
X013158Y027754D02*
G03*
X013158Y027754I-00004J0D01*
G01*
X013298Y026378D02*
G03*
X013298Y026378I-00004J0D01*
G01*
X008337Y021929D02*
G03*
X008337Y021929I-00004J0D01*
G01*
X012269Y027741D02*
G03*
X012269Y027741I-00004J0D01*
G01*
X027343Y023514D02*
G03*
X027343Y023514I-00004J0D01*
G01*
X029164Y02373D02*
G03*
X029164Y02373I-00004J0D01*
G01*
X030316Y025994D02*
G03*
X030316Y025994I-00004J0D01*
G01*
X044292Y034291D02*
G03*
X044292Y034291I-00004J0D01*
G01*
X042934Y034104D02*
G03*
X042934Y034104I-00004J0D01*
G01*
X042097Y034557D02*
G03*
X042097Y034557I-00004J0D01*
G01*
X045249Y036458D02*
G03*
X045249Y036458I-00004J0D01*
G01*
X043721Y036358D02*
G03*
X043721Y036358I-00004J0D01*
G01*
X043731Y038386D02*
G03*
X043731Y038386I-00004J0D01*
G01*
X042127D02*
G03*
X042127Y038386I-00004J0D01*
G01*
X032349Y024783D02*
G03*
X032349Y024783I-00004J0D01*
G01*
X031694Y025404D02*
G03*
X031694Y025404I-00004J0D01*
G01*
X032068Y025561D02*
G03*
X032068Y025561I-00004J0D01*
G01*
X036469Y027856D02*
G03*
X036469Y027856I-00004J0D01*
G01*
X035965Y027736D02*
G03*
X035965Y027736I-00004J0D01*
G01*
X034223Y024154D02*
G03*
X034223Y024154I-00004J0D01*
G01*
X035148Y024183D02*
G03*
X035148Y024183I-00004J0D01*
G01*
X03189Y022333D02*
G03*
X03189Y022333I-00004J0D01*
G01*
X026762Y022362D02*
G03*
X026762Y022362I-00004J0D01*
G01*
X03318Y022795D02*
G03*
X03318Y022795I-00004J0D01*
G01*
X04316Y020709D02*
G03*
X04316Y020709I-00004J0D01*
G01*
X039823Y020374D02*
G03*
X039823Y020374I-00004J0D01*
G01*
X036418Y021181D02*
G03*
X036418Y021181I-00004J0D01*
G01*
X040916Y019646D02*
G03*
X040916Y019646I-00004J0D01*
G01*
X001556Y028563D02*
G03*
X001556Y028563I-00004J0D01*
G01*
X008751Y030778D02*
G03*
X008751Y030778I-00004J0D01*
G01*
X008735Y031476D02*
G03*
X008735Y031476I-00004J0D01*
G01*
X012077Y014439D02*
G03*
X012077Y014439I-00004J0D01*
G01*
X017993Y015187D02*
G03*
X017993Y015187I-00004J0D01*
G01*
X01821Y014193D02*
G03*
X01821Y014193I-00004J0D01*
G01*
X013072Y02812D02*
G03*
X013072Y02812I-00004J0D01*
G01*
X031664Y024331D02*
G03*
X031664Y024331I-00004J0D01*
G01*
X032255Y023996D02*
G03*
X032255Y023996I-00004J0D01*
G01*
X031597Y023583D02*
G03*
X031597Y023583I-00004J0D01*
G01*
X02823Y023712D02*
G03*
X02823Y023712I-00004J0D01*
G01*
X029696Y027049D02*
G03*
X029696Y027049I-00004J0D01*
G01*
X030324Y025049D02*
G03*
X030324Y025049I-00004J0D01*
G01*
X030936Y021614D02*
G03*
X030936Y021614I-00004J0D01*
G01*
X023367Y02188D02*
G03*
X023367Y02188I-00004J0D01*
G01*
X026536Y022028D02*
G03*
X026536Y022028I-00004J0D01*
G01*
X022796Y033041D02*
G03*
X022796Y033041I-00004J0D01*
G01*
X013377Y029075D02*
G03*
X013377Y029075I-00004J0D01*
G01*
X026418Y025034D02*
G03*
X026418Y025034I-00004J0D01*
G01*
X03051Y025783D02*
G03*
X03051Y025783I-00004J0D01*
G01*
X027402Y025817D02*
G03*
X027402Y025817I-00004J0D01*
G01*
X038564Y012293D02*
G03*
X038564Y012293I-00004J0D01*
G01*
X03877Y013199D02*
G03*
X03877Y013199I-00004J0D01*
G01*
X037038Y015915D02*
G03*
X037038Y015915I-00004J0D01*
G01*
X038583Y017913D02*
G03*
X038583Y017913I-00004J0D01*
G01*
X034873Y020069D02*
G03*
X034873Y020069I-00004J0D01*
G01*
X034883Y022536D02*
G03*
X034883Y022536I-00004J0D01*
G01*
X034615Y022185D02*
G03*
X034615Y022185I-00004J0D01*
G01*
X034951Y021024D02*
G03*
X034951Y021024I-00004J0D01*
G01*
X033536Y022127D02*
G03*
X033536Y022127I-00004J0D01*
G01*
X035109Y022726D02*
G03*
X035109Y022726I-00004J0D01*
G01*
X036078Y023691D02*
G03*
X036078Y023691I-00004J0D01*
G01*
X037749Y020818D02*
G03*
X037749Y020818I-00004J0D01*
G01*
X040827Y004764D02*
G03*
X040827Y004764I-00004J0D01*
G01*
X041103Y003868D02*
G03*
X041103Y003868I-00004J0D01*
G01*
X01793Y02611D02*
G03*
X01793Y02611I-00004J0D01*
G01*
X009873Y01875D02*
G03*
X009873Y01875I-00004J0D01*
G01*
X046625Y033366D02*
G03*
X046625Y033366I-00004J0D01*
G01*
X04006Y034065D02*
G03*
X04006Y034065I-00004J0D01*
G01*
X037471Y034262D02*
G03*
X037471Y034262I-00004J0D01*
G01*
X040178Y035522D02*
G03*
X040178Y035522I-00004J0D01*
G01*
X041989Y029656D02*
G03*
X041989Y029656I-00004J0D01*
G01*
X041516Y028661D02*
G03*
X041516Y028661I-00004J0D01*
G01*
X043879Y027894D02*
G03*
X043879Y027894I-00004J0D01*
G01*
X041959Y027874D02*
G03*
X041959Y027874I-00004J0D01*
G01*
X039115Y034695D02*
G03*
X039115Y034695I-00004J0D01*
G01*
X044855Y035947D02*
G03*
X044855Y035947I-00004J0D01*
G01*
X044075Y035699D02*
G03*
X044075Y035699I-00004J0D01*
G01*
X044823Y035689D02*
G03*
X044823Y035689I-00004J0D01*
G01*
X04393Y035927D02*
G03*
X04393Y035927I-00004J0D01*
G01*
X045188Y03253D02*
G03*
X045188Y03253I-00004J0D01*
G01*
X044066Y035413D02*
G03*
X044066Y035413I-00004J0D01*
G01*
X042796Y03252D02*
G03*
X042796Y03252I-00004J0D01*
G01*
X041241Y03251D02*
G03*
X041241Y03251I-00004J0D01*
G01*
X04382Y031368D02*
G03*
X04382Y031368I-00004J0D01*
G01*
X043652Y031752D02*
G03*
X043652Y031752I-00004J0D01*
G01*
X040888Y035257D02*
G03*
X040888Y035257I-00004J0D01*
G01*
X04268Y035415D02*
G03*
X04268Y035415I-00004J0D01*
G01*
X040808Y021929D02*
G03*
X040808Y021929I-00004J0D01*
G01*
X017766Y02813D02*
G03*
X017766Y02813I-00004J0D01*
G01*
X040463Y034872D02*
G03*
X040463Y034872I-00004J0D01*
G01*
X037944Y035807D02*
G03*
X037944Y035807I-00004J0D01*
G01*
X039075Y036191D02*
G03*
X039075Y036191I-00004J0D01*
G01*
X008406Y027188D02*
G03*
X008406Y027188I-00004J0D01*
G01*
X022973Y033278D02*
G03*
X022973Y033278I-00004J0D01*
G01*
X033268Y028858D02*
G03*
X033268Y028858I-00004J0D01*
G01*
X030441Y019774D02*
G03*
X030441Y019774I-00004J0D01*
G01*
X026684Y019282D02*
G03*
X026684Y019282I-00004J0D01*
G01*
X030731Y027049D02*
G03*
X030731Y027049I-00004J0D01*
G01*
X040463Y025683D02*
G03*
X040463Y025683I-00004J0D01*
G01*
X041477Y018297D02*
G03*
X041477Y018297I-00004J0D01*
G01*
X038849Y025837D02*
G03*
X038849Y025837I-00004J0D01*
G01*
X038347Y026683D02*
G03*
X038347Y026683I-00004J0D01*
G01*
X038662Y025197D02*
G03*
X038662Y025197I-00004J0D01*
G01*
X03382Y029843D02*
G03*
X03382Y029843I-00004J0D01*
G01*
X03815Y025433D02*
G03*
X03815Y025433I-00004J0D01*
G01*
X040631Y018858D02*
G03*
X040631Y018858I-00004J0D01*
G01*
X040282Y017858D02*
G03*
X040282Y017858I-00004J0D01*
G01*
X040217Y016841D02*
G03*
X040217Y016841I-00004J0D01*
G01*
X044469Y020482D02*
G03*
X044469Y020482I-00004J0D01*
G01*
X044696Y019774D02*
G03*
X044696Y019774I-00004J0D01*
G01*
X044922Y019006D02*
G03*
X044922Y019006I-00004J0D01*
G01*
X045709Y017441D02*
G03*
X045709Y017441I-00004J0D01*
G01*
X045237Y01812D02*
G03*
X045237Y01812I-00004J0D01*
G01*
X031516Y0169D02*
G03*
X031516Y0169I-00004J0D01*
G01*
X030621Y012579D02*
G03*
X030621Y012579I-00004J0D01*
G01*
X030972Y015384D02*
G03*
X030972Y015384I-00004J0D01*
G01*
X031428Y01313D02*
G03*
X031428Y01313I-00004J0D01*
G01*
X031546Y015354D02*
G03*
X031546Y015354I-00004J0D01*
G01*
X021438Y014646D02*
G03*
X021438Y014646I-00004J0D01*
G01*
X025148Y013661D02*
G03*
X025148Y013661I-00004J0D01*
G01*
X02194Y014606D02*
G03*
X02194Y014606I-00004J0D01*
G01*
X023565Y011733D02*
G03*
X023565Y011733I-00004J0D01*
G01*
X024249Y012126D02*
G03*
X024249Y012126I-00004J0D01*
G01*
X031447Y019656D02*
G03*
X031447Y019656I-00004J0D01*
G01*
X031949Y019695D02*
G03*
X031949Y019695I-00004J0D01*
G01*
X032822Y019685D02*
G03*
X032822Y019685I-00004J0D01*
G01*
X011014Y019291D02*
G03*
X011014Y019291I-00004J0D01*
G01*
X001497Y010591D02*
G03*
X001497Y010591I-00004J0D01*
G01*
X036418Y026752D02*
G03*
X036418Y026752I-00004J0D01*
G01*
X032757Y027205D02*
G03*
X032757Y027205I-00004J0D01*
G01*
X034299Y023213D02*
G03*
X034299Y023213I-00004J0D01*
G01*
X03279Y022333D02*
G03*
X03279Y022333I-00004J0D01*
G01*
X033458Y026801D02*
G03*
X033458Y026801I-00004J0D01*
G01*
X033544Y025285D02*
G03*
X033544Y025285I-00004J0D01*
G01*
X033711Y017608D02*
G03*
X033711Y017608I-00004J0D01*
G01*
X033081Y016191D02*
G03*
X033081Y016191I-00004J0D01*
G01*
X034176Y016004D02*
G03*
X034176Y016004I-00004J0D01*
G01*
X037983Y020955D02*
G03*
X037983Y020955I-00004J0D01*
G01*
X038012Y025683D02*
G03*
X038012Y025683I-00004J0D01*
G01*
X039253Y025965D02*
G03*
X039253Y025965I-00004J0D01*
G01*
X04005Y02627D02*
G03*
X04005Y02627I-00004J0D01*
G01*
X037304Y026535D02*
G03*
X037304Y026535I-00004J0D01*
G01*
X034392Y024883D02*
G03*
X034392Y024883I-00004J0D01*
G01*
X033905Y026273D02*
G03*
X033905Y026273I-00004J0D01*
G01*
X032822Y026457D02*
G03*
X032822Y026457I-00004J0D01*
G01*
X035266Y025089D02*
G03*
X035266Y025089I-00004J0D01*
G01*
X034528Y028435D02*
G03*
X034528Y028435I-00004J0D01*
G01*
X032451Y032904D02*
G03*
X032451Y032904I-00004J0D01*
G01*
X03316Y033031D02*
G03*
X03316Y033031I-00004J0D01*
G01*
X032825Y032047D02*
G03*
X032825Y032047I-00004J0D01*
G01*
X032394Y030375D02*
G03*
X032394Y030375I-00004J0D01*
G01*
X03314Y030177D02*
G03*
X03314Y030177I-00004J0D01*
G01*
X031644Y027018D02*
G03*
X031644Y027018I-00004J0D01*
G01*
X038003Y027766D02*
G03*
X038003Y027766I-00004J0D01*
G01*
X038524Y03002D02*
G03*
X038524Y03002I-00004J0D01*
G01*
X037894Y033031D02*
G03*
X037894Y033031I-00004J0D01*
G01*
X028977Y026024D02*
G03*
X028977Y026024I-00004J0D01*
G01*
X028132Y025011D02*
G03*
X028132Y025011I-00004J0D01*
G01*
X03129Y022441D02*
G03*
X03129Y022441I-00004J0D01*
G01*
X037678Y007083D02*
G03*
X037678Y007083I-00004J0D01*
G01*
X026339Y021614D02*
G03*
X026339Y021614I-00004J0D01*
G01*
X006969Y013543D02*
G03*
X006969Y013543I-00004J0D01*
G01*
X005316Y035939D02*
G03*
X005316Y035939I-00004J0D01*
G01*
X002402Y035945D02*
G03*
X002402Y035945I-00004J0D01*
G01*
X001536Y036043D02*
G03*
X001536Y036043I-00004J0D01*
G01*
X003268Y036024D02*
G03*
X003268Y036024I-00004J0D01*
G01*
X004056Y036043D02*
G03*
X004056Y036043I-00004J0D01*
G01*
X007442Y026654D02*
G03*
X007442Y026654I-00004J0D01*
G01*
X028071D02*
G03*
X028071Y026654I-00004J0D01*
G01*
X040827Y009882D02*
G03*
X040827Y009882I-00004J0D01*
G01*
X046024Y027008D02*
G03*
X046024Y027008I-00004J0D01*
G01*
X029174Y022868D02*
G03*
X029174Y022868I-00004J0D01*
G01*
X007402Y022835D02*
G03*
X007402Y022835I-00004J0D01*
G01*
Y000512D02*
G03*
X007402Y000512I-00004J0D01*
G01*
X016379Y014734D02*
G03*
X016379Y014734I-00004J0D01*
G01*
X018859Y013071D02*
G03*
X018859Y013071I-00004J0D01*
G01*
M02*
